<svg xmlns="http://www.w3.org/2000/svg" viewBox="0 0 93.736 83.553" fill="#777"><path fill-rule="evenodd" clip-rule="evenodd" d="M74.797 69.236c4.645-.174 9.29-.35 13.935-.523.092 1.926.158 3.93.232 5.908.012.303.021.623-.043.912-.056.252-.16.561-.354.623-.201.066-.54.031-.809.043-4.074.152-8.215.316-12.25.447-.607-.4-.505-1.637-.543-2.654-.058-1.553-.132-3.246-.168-4.756zM74.689 66.654l-2.18-58.043c.001-.058.112-.037.177-.04l13.745-.517.033-.001 2.181 58.065c.003.023-.008.035-.031.033l-13.891.521c-.018.004-.028-.004-.034-.018zM72.429 6.472l-.113-3.015c-.025-.682-.134-1.581.042-2.144.053-.169.16-.406.282-.455.165-.066.569-.032.82-.042C77.326.671 81.073.529 84.944.385c.254-.01.654-.069.81-.02.131.042.249.272.316.443.212.543.176 1.44.202 2.135l.113 3.015-13.923.523c-.014.002-.03.004-.033-.009zM3.445 67.928c5.23.572 10.536 1.174 15.763 1.783l-.666 5.885c-.035.309-.076.617-.189.883-.095.225-.27.496-.473.527-.23.037-.627-.059-.916-.092L4.012 75.449c-.308-.035-.698-.031-.902-.113-.313-.125-.396-.775-.37-1.168.069-1.055.236-2.088.353-3.121l.352-3.119zM3.737 65.35l6.471-57.243c.019-.165.013-.357.05-.44.028-.064-.006-.05.084-.058.022-.002.042.005.066.007l15.598 1.763c.024-.002.019.018.018.036l-6.523 57.704c-.008.055-.088.023-.147.018L3.768 65.375c-.019-.002-.028-.012-.031-.025zM10.502 5.506l.341-3.021c.053-.464.088-1.01.18-1.498.079-.415.296-.929.613-.98.219-.036.609.058.916.092l12.941 1.463c.307.035.82.04.965.154a.713.713 0 0 1 .165.219c.288.596.057 1.669-.045 2.574l-.315 2.789-15.729-1.777c-.016-.001-.032-.002-.032-.015zM69.64 67.871c-4.751.602-9.535 1.178-14.265 1.797l.728 5.813c.037.301.077.621.18.893.083.227.265.549.441.582.188.037.553-.057.838-.094l11.723-1.467c.26-.033.647-.025.846-.117.259-.119.31-.715.309-1.021-.002-.258-.067-.537-.101-.805l-.699-5.581zM69.32 65.316L62.1 7.64 48.782 9.307c-.299.037-.612.045-.881.11-.023.006-.079-.014-.062.042l7.213 57.622c0 .025.013.035.037.029l14.199-1.777c.016-.001.032-.003.032-.017zM61.838 5.548c-.223-1.516-.322-2.925-.56-4.469-.057-.368-.277-.972-.575-1.023-.192-.034-.558.059-.838.093L48.142 1.617c-.271.034-.709.048-.845.128-.265.155-.297.742-.271 1.141.1 1.492.415 2.978.547 4.459l14.232-1.782c.017 0 .033-.001.033-.015zM44.037 7.41L29.755 8.959l-.635-5.856c-.033-.3-.072-.62-.032-.912.034-.246.123-.568.298-.646.191-.085.567-.073.837-.102C34.4.99 38.673.518 42.808.09c.635.351.619 1.592.729 2.599.167 1.542.358 3.22.5 4.721zM44.327 9.979l6.262 57.744c-.005.059-.143.049-.217.057l-14.051 1.525c-2.131-19.168-4.194-38.611-6.288-57.776.013-.042.093-.032.152-.039L44.29 9.96c.021-.002.031.005.037.019zM50.82 69.852l.326 3c.072.676.251 1.576.109 2.141-.043.17-.158.426-.285.467-.227.072-.543.07-.836.102l-11.746 1.275c-.267.027-.662.117-.828.078-.283-.066-.492-.654-.546-1.023-.222-1.512-.283-3.012-.488-4.5l14.26-1.547c.015-.003.031-.005.034.007z"/><path d="M93.736 83.291c0 .145-.813.262-1.815.262H1.815C.813 83.553 0 83.436 0 83.291V78.65c0-.145.813-.262 1.815-.262H91.92c1.003 0 1.815.117 1.815.262v4.641z"/></svg>