<svg version="1" xmlns="http://www.w3.org/2000/svg" width="666.667" height="666.667" viewBox="0 0 500.000000 500.000000"><path d="M0 250v250h500V0H0v250zm207-146.4v74.6l6.8-6.2c21.5-19.8 46.5-29.5 78.7-30.7 28.3-1 53.1 5.3 74 18.9 43.6 28.5 64.3 77.4 62.2 146.8-.3 10.7-1.3 24.2-2.2 30-7.1 46.6-26.7 84-54.8 105.1-9.7 7.2-27.2 16-37.7 18.9-38.9 10.8-81 3.5-107.5-18.5-6.9-5.7-11.2-10.1-24.8-25l-3.6-4-.1 22.7V459H87V29h120v74.6z"/><path d="M247.8 231.6c-8.9 2.1-15.7 6.1-22.9 13.3-10.2 10.2-15.5 22.6-17.9 42.1-2.8 22.8 1 50.8 8.8 65.5 4.2 7.8 14.9 18 22.6 21.5 19.1 8.7 40.3 4.7 53.9-10 10.2-11 14.9-24.7 16.9-48.6 2.6-32.3-3.2-57.2-16.8-71.4-11.6-12.2-27.5-16.6-44.6-12.4z"/></svg>