<?xml version="1.0" standalone="no"?>
<!DOCTYPE svg PUBLIC "-//W3C//DTD SVG 20010904//EN"
 "http://www.w3.org/TR/2001/REC-SVG-20010904/DTD/svg10.dtd">
<svg version="1.0" xmlns="http://www.w3.org/2000/svg"
 width="500.000000pt" height="500.000000pt" viewBox="0 0 500.000000 500.000000"
 preserveAspectRatio="xMidYMid meet">
<metadata>
Created by potrace 1.11, written by Peter Selinger 2001-2013
</metadata>
<g transform="translate(0.000000,500.000000) scale(0.100000,-0.100000)"
fill="#000000" stroke="none">
<path d="M0 2500 l0 -2500 2500 0 2500 0 0 2500 0 2500 -2500 0 -2500 0 0
-2500z m2070 1464 l0 -746 68 62 c215 198 465 295 787 307 283 10 531 -53 740
-189 436 -285 643 -774 622 -1468 -3 -107 -13 -242 -22 -300 -71 -466 -267
-840 -548 -1051 -97 -72 -272 -160 -377 -189 -389 -108 -810 -35 -1075 185
-69 57 -112 101 -248 250 l-36 40 -1 -227 0 -228 -555 0 -555 0 0 2150 0 2150
600 0 600 0 0 -746z"/>
<path d="M2478 2684 c-89 -21 -157 -61 -229 -133 -102 -102 -155 -226 -179
-421 -28 -228 10 -508 88 -655 42 -78 149 -180 226 -215 191 -87 403 -47 539
100 102 110 149 247 169 486 26 323 -32 572 -168 714 -116 122 -275 166 -446
124z"/>
</g>
</svg>
