<svg xmlns="http://www.w3.org/2000/svg" style="fill:#777;" xmlns:xlink="http://www.w3.org/1999/xlink" version="1.1" x="0px" y="0px" viewBox="0 0 93.736 83.553" enable-background="new 0 0 93.736 83.553" xml:space="preserve"><path fill-rule="evenodd" clip-rule="evenodd" d="M74.797,69.236c4.645-0.174,9.29-0.35,13.935-0.523  c0.092,1.926,0.158,3.93,0.232,5.908c0.012,0.303,0.021,0.623-0.043,0.912c-0.056,0.252-0.16,0.561-0.354,0.623  c-0.201,0.066-0.54,0.031-0.809,0.043c-4.074,0.152-8.215,0.316-12.25,0.447c-0.607-0.4-0.505-1.637-0.543-2.654  C74.907,72.439,74.833,70.746,74.797,69.236z"></path><path fill-rule="evenodd" clip-rule="evenodd" d="M74.689,66.654c-0.727-19.346-1.453-38.7-2.18-58.043  c0.001-0.058,0.112-0.037,0.177-0.04c4.508-0.169,9.21-0.346,13.745-0.517c0.012,0,0.022,0,0.033-0.001  c0.728,19.355,1.454,38.709,2.181,58.065c0.003,0.023-0.008,0.035-0.031,0.033c-4.631,0.174-9.26,0.348-13.891,0.521  C74.705,66.676,74.695,66.668,74.689,66.654z"></path><path fill-rule="evenodd" clip-rule="evenodd" d="M72.429,6.472c-0.04-1.062-0.073-1.959-0.113-3.015  c-0.025-0.682-0.134-1.581,0.042-2.144c0.053-0.169,0.16-0.406,0.282-0.455c0.165-0.066,0.569-0.032,0.82-0.042  c3.866-0.145,7.613-0.287,11.484-0.431c0.254-0.01,0.654-0.069,0.81-0.02c0.131,0.042,0.249,0.272,0.316,0.443  c0.212,0.543,0.176,1.44,0.202,2.135c0.039,1.052,0.075,1.996,0.113,3.015c-4.642,0.174-9.282,0.349-13.923,0.523  C72.448,6.483,72.432,6.485,72.429,6.472z"></path><path fill-rule="evenodd" clip-rule="evenodd" d="M3.445,67.928c5.23,0.572,10.536,1.174,15.763,1.783  c-0.239,2.117-0.435,3.846-0.666,5.885c-0.035,0.309-0.076,0.617-0.189,0.883c-0.095,0.225-0.27,0.496-0.473,0.527  c-0.23,0.037-0.627-0.059-0.916-0.092c-4.344-0.492-8.585-0.971-12.952-1.465c-0.308-0.035-0.698-0.031-0.902-0.113  c-0.313-0.125-0.396-0.775-0.37-1.168c0.069-1.055,0.236-2.088,0.353-3.121C3.209,70.018,3.326,68.984,3.445,67.928z"></path><path fill-rule="evenodd" clip-rule="evenodd" d="M3.737,65.35c2.147-18.99,4.316-38.186,6.471-57.243  c0.019-0.165,0.013-0.357,0.05-0.44c0.028-0.064-0.006-0.05,0.084-0.058c0.022-0.002,0.042,0.005,0.066,0.007  C15.566,8.199,20.879,8.8,26.006,9.379c0.024-0.002,0.019,0.018,0.018,0.036c-2.174,19.237-4.348,38.466-6.523,57.704  c-0.008,0.055-0.088,0.023-0.147,0.018c-5.12-0.578-10.44-1.18-15.586-1.762C3.749,65.373,3.74,65.363,3.737,65.35z"></path><path fill-rule="evenodd" clip-rule="evenodd" d="M10.502,5.506c0.112-0.995,0.223-1.974,0.341-3.021  c0.053-0.464,0.088-1.01,0.18-1.498c0.079-0.415,0.296-0.929,0.613-0.98c0.219-0.036,0.609,0.058,0.916,0.092  c4.313,0.488,8.607,0.973,12.941,1.463c0.307,0.035,0.82,0.04,0.965,0.154c0.058,0.045,0.128,0.143,0.165,0.219  c0.288,0.596,0.057,1.669-0.045,2.574c-0.114,1.009-0.213,1.882-0.315,2.789C21.02,6.706,15.777,6.113,10.534,5.521  C10.518,5.52,10.502,5.519,10.502,5.506z"></path><path fill-rule="evenodd" clip-rule="evenodd" d="M69.64,67.871c-4.751,0.602-9.535,1.178-14.265,1.797  c0.251,2.002,0.479,3.826,0.728,5.813c0.037,0.301,0.077,0.621,0.18,0.893c0.083,0.227,0.265,0.549,0.441,0.582  c0.188,0.037,0.553-0.057,0.838-0.094c3.907-0.488,7.816-0.979,11.723-1.467c0.26-0.033,0.647-0.025,0.846-0.117  c0.259-0.119,0.31-0.715,0.309-1.021c-0.002-0.258-0.067-0.537-0.101-0.805C70.107,71.607,69.873,69.727,69.64,67.871z"></path><path fill-rule="evenodd" clip-rule="evenodd" d="M69.32,65.316C66.914,46.09,64.507,26.872,62.1,7.64  c-4.308,0.54-8.931,1.118-13.318,1.667c-0.299,0.037-0.612,0.045-0.881,0.11c-0.023,0.006-0.079-0.014-0.062,0.042  c2.404,19.209,4.808,38.411,7.213,57.622c0,0.025,0.013,0.035,0.037,0.029c4.732-0.592,9.465-1.184,14.199-1.777  C69.304,65.332,69.32,65.33,69.32,65.316z"></path><path fill-rule="evenodd" clip-rule="evenodd" d="M61.838,5.548c-0.223-1.516-0.322-2.925-0.56-4.469  c-0.057-0.368-0.277-0.972-0.575-1.023c-0.192-0.034-0.558,0.059-0.838,0.093c-3.894,0.488-7.808,0.978-11.723,1.468  c-0.271,0.034-0.709,0.048-0.845,0.128c-0.265,0.155-0.297,0.742-0.271,1.141c0.1,1.492,0.415,2.978,0.547,4.459  c4.744-0.594,9.489-1.188,14.232-1.782C61.822,5.563,61.838,5.562,61.838,5.548z"></path><path fill-rule="evenodd" clip-rule="evenodd" d="M44.037,7.41c-4.76,0.516-9.521,1.033-14.282,1.549  c-0.209-1.931-0.422-3.891-0.635-5.856c-0.033-0.3-0.072-0.62-0.032-0.912c0.034-0.246,0.123-0.568,0.298-0.646  c0.191-0.085,0.567-0.073,0.837-0.102C34.4,0.99,38.673,0.518,42.808,0.09c0.635,0.351,0.619,1.592,0.729,2.599  C43.704,4.231,43.895,5.909,44.037,7.41z"></path><path fill-rule="evenodd" clip-rule="evenodd" d="M44.327,9.979c2.087,19.246,4.175,38.502,6.262,57.744  c-0.005,0.059-0.143,0.049-0.217,0.057c-4.61,0.5-9.415,1.021-14.051,1.525c-2.131-19.168-4.194-38.611-6.288-57.776  c0.013-0.042,0.093-0.032,0.152-0.039c4.657-0.505,9.424-1.022,14.105-1.53C44.311,9.958,44.321,9.965,44.327,9.979z"></path><path fill-rule="evenodd" clip-rule="evenodd" d="M50.82,69.852c0.114,1.055,0.211,1.945,0.326,3  c0.072,0.676,0.251,1.576,0.109,2.141c-0.043,0.17-0.158,0.426-0.285,0.467c-0.227,0.072-0.543,0.07-0.836,0.102  c-3.926,0.426-7.806,0.848-11.746,1.275c-0.267,0.027-0.662,0.117-0.828,0.078c-0.283-0.066-0.492-0.654-0.546-1.023  c-0.222-1.512-0.283-3.012-0.488-4.5c4.753-0.516,9.507-1.031,14.26-1.547C50.801,69.842,50.817,69.84,50.82,69.852z"></path><path d="M93.736,83.291c0,0.145-0.813,0.262-1.815,0.262H1.815C0.813,83.553,0,83.436,0,83.291V78.65  c0-0.145,0.813-0.262,1.815-0.262H91.92c1.003,0,1.815,0.117,1.815,0.262V83.291z"></path></svg>